<svg width="105" height="20" viewBox="0 0 105 20" fill="none" xmlns="http://www.w3.org/2000/svg">
<path d="M11.5972 0V3.72381H8.40663V0H0V20H20V0H11.5934H11.5972ZM9.2214 18.3312V13.1609H5.2846L10.5159 5.78247V10.4828H14.7192L9.2214 18.3349V18.3312Z" fill="#CCCCCC"/>
<path d="M78.804 14.604H85.2045V18.0582H67.8206V14.604H74.2211V12.2998H78.8084V14.604H78.804ZM73.4915 11.5865C72.4123 11.5865 71.4643 11.3747 70.6429 10.9553C69.8216 10.5316 69.1881 9.93938 68.7337 9.16986C68.2837 8.40035 68.0565 7.5141 68.0565 6.49817C68.0565 5.48224 68.2837 4.61761 68.7337 3.85242C69.1837 3.08723 69.8216 2.49064 70.6429 2.06697C71.4643 1.6433 72.4123 1.43579 73.4915 1.43579H79.5293C80.6084 1.43579 81.5565 1.64763 82.3778 2.06697C83.1992 2.49064 83.8327 3.0829 84.287 3.85242C84.737 4.62193 84.9642 5.50385 84.9642 6.49817C84.9642 7.49249 84.737 8.40035 84.287 9.16986C83.837 9.93938 83.1992 10.5316 82.3778 10.9553C81.5565 11.379 80.6084 11.5865 79.5293 11.5865H73.4915ZM74.3128 4.91158C73.7973 4.91158 73.3822 5.05857 73.0677 5.34822C72.7531 5.63787 72.5958 6.03127 72.5958 6.52411C72.5958 7.01694 72.7531 7.40603 73.0677 7.7C73.3822 7.98965 73.7973 8.13663 74.3128 8.13663H78.7079C79.2235 8.13663 79.6385 7.98965 79.9531 7.7C80.2676 7.41035 80.4249 7.01694 80.4249 6.52411C80.4249 6.03127 80.2676 5.64219 79.9531 5.34822C79.6385 5.05857 79.2235 4.91158 78.7079 4.91158H74.3128Z" fill="#CCCCCC"/>
<path d="M98.3593 4.93762H92.6142V14.6084H98.3593V18.0626H88.0967V1.48777H98.3593V4.94194V4.93762ZM105 18.75H100.461V11.6125H97.5642V8.15835H100.461V1.25H105V18.75Z" fill="#CCCCCC"/>
<path d="M32.498 13.3374H27.9849V18.75H44.3989V15.2958H32.498V13.3374Z" fill="#CCCCCC"/>
<path d="M39.8858 1.25V5.16242H38.2431V1.47912H33.7301V3.48073H32.0393V1.47912H27.5V12.1832H38.2431V8.6166H39.8858V13.3375H44.3989V1.25H39.8858ZM32.4412 11.0116V8.36154H30.5626L33.0572 4.5788V6.98678H35.0626L32.4412 11.0116Z" fill="#CCCCCC"/>
<path d="M47.5401 1.4834H54.5916V5.60334C54.5916 12.9872 52.4027 17.1374 48.0251 18.0583L47.0596 14.6041C48.1693 14.1285 48.9906 13.1861 49.5236 11.7724C50.0566 10.3588 50.3188 8.30529 50.3188 5.60334V4.93758H47.5445V1.4834H47.5401Z" fill="#CCCCCC"/>
<path d="M64.9197 1.25H60.7605V8.18861H59.7381V1.25H55.5789V8.15835V11.6125V18.6938V18.75H59.7381V11.5909H60.7605V18.75H64.9197V1.25Z" fill="#CCCCCC"/>
</svg>
