<svg width="84" height="48" viewBox="0 0 84 48" fill="none" xmlns="http://www.w3.org/2000/svg">
<path d="M53.4783 42.2099H59.3301V45.368H43.4363V42.2099H49.2881V40.1032H53.4823V42.2099H53.4783ZM48.621 39.451C47.6344 39.451 46.7676 39.2574 46.0167 38.874C45.2657 38.4866 44.6865 37.9451 44.2711 37.2416C43.8597 36.538 43.652 35.7277 43.652 34.7989C43.652 33.87 43.8597 33.0795 44.2711 32.3799C44.6825 31.6803 45.2657 31.1348 46.0167 30.7475C46.7676 30.3601 47.6344 30.1704 48.621 30.1704H54.1413C55.128 30.1704 55.9948 30.3641 56.7457 30.7475C57.4967 31.1348 58.0759 31.6763 58.4913 32.3799C58.9027 33.0835 59.1104 33.8898 59.1104 34.7989C59.1104 35.708 58.9027 36.538 58.4913 37.2416C58.0798 37.9451 57.4967 38.4866 56.7457 38.874C55.9948 39.2613 55.128 39.451 54.1413 39.451H48.621ZM49.372 33.3483C48.9007 33.3483 48.5212 33.4827 48.2336 33.7475C47.946 34.0123 47.8022 34.372 47.8022 34.8226C47.8022 35.2732 47.946 35.6289 48.2336 35.8977C48.5212 36.1625 48.9007 36.2969 49.372 36.2969H53.3904C53.8617 36.2969 54.2412 36.1625 54.5288 35.8977C54.8164 35.6329 54.9602 35.2732 54.9602 34.8226C54.9602 34.372 54.8164 34.0163 54.5288 33.7475C54.2412 33.4827 53.8617 33.3483 53.3904 33.3483H49.372Z" fill="#F80069" fill-opacity="0.8"/>
<path d="M71.357 33.3715H66.1044V42.2134H71.357V45.3715H61.9741V30.2174H71.357V33.3755V33.3715ZM77.4286 46H73.2784V39.4743H70.63V36.3162H73.2784V30H77.4286V46Z" fill="#F80069" fill-opacity="0.8"/>
<path d="M11.1406 41.0513H7.0144V45.9999H22.0215V42.8418H11.1406V41.0513Z" fill="#F80069" fill-opacity="0.8"/>
<path d="M17.8955 30V33.5771H16.3936V30.2095H12.2673V32.0395H10.7215V30.2095H6.57129V39.996H16.3936V36.7352H17.8955V41.0514H22.0217V30H17.8955ZM11.089 38.9249V36.502H9.37138L11.6522 33.0435V35.2451H13.4856L11.089 38.9249Z" fill="#F80069" fill-opacity="0.8"/>
<path d="M24.8935 30.2134H31.3405V33.9802C31.3405 40.7312 29.3393 44.5256 25.3369 45.3675L24.4541 42.2094C25.4687 41.7746 26.2196 40.913 26.707 39.6205C27.1943 38.328 27.4339 36.4505 27.4339 33.9802V33.3715H24.8975V30.2134H24.8935Z" fill="#F80069" fill-opacity="0.8"/>
<path d="M40.7833 30H36.9806V36.3439H36.0459V30H32.2432V36.3162V39.4743V45.9486V46H36.0459V39.4545H36.9806V46H40.7833V30Z" fill="#F80069" fill-opacity="0.8"/>
<path d="M43.5972 2V5.72381H40.4066V2H32V22H52V2H43.5934H43.5972ZM41.2214 20.3312V15.1609H37.2846L42.5159 7.78247V12.4828H46.7192L41.2214 20.3349V20.3312Z" fill="#F80069" fill-opacity="0.8"/>
</svg>
