<svg width="84" height="16" viewBox="0 0 84 16" fill="none" xmlns="http://www.w3.org/2000/svg">
<path d="M9.27775 0V2.97905H6.7253V0H0V16H16V0H9.2747H9.27775ZM7.37712 14.665V10.5287H4.22768L8.41272 4.62598V8.38623H11.7754L7.37712 14.6679V14.665Z" fill="#F80069"/>
<path d="M63.0432 11.6833H68.1636V14.4466H54.2565V11.6833H59.3769V9.83989H63.0467V11.6833H63.0432ZM58.7932 9.26924C57.9299 9.26924 57.1714 9.09977 56.5143 8.7643C55.8573 8.42536 55.3505 7.95155 54.987 7.33594C54.627 6.72032 54.4452 6.01133 54.4452 5.19859C54.4452 4.38584 54.627 3.69414 54.987 3.08198C55.347 2.46983 55.8573 1.99256 56.5143 1.65362C57.1714 1.31469 57.9299 1.14868 58.7932 1.14868H63.6234C64.4867 1.14868 65.2452 1.31815 65.9023 1.65362C66.5593 1.99256 67.0661 2.46637 67.4296 3.08198C67.7896 3.6976 67.9714 4.40313 67.9714 5.19859C67.9714 5.99404 67.7896 6.72032 67.4296 7.33594C67.0696 7.95155 66.5593 8.42536 65.9023 8.7643C65.2452 9.10323 64.4867 9.26924 63.6234 9.26924H58.7932ZM59.4503 3.92931C59.0378 3.92931 58.7058 4.0469 58.4541 4.27862C58.2025 4.51034 58.0767 4.82507 58.0767 5.21934C58.0767 5.6136 58.2025 5.92487 58.4541 6.16005C58.7058 6.39177 59.0378 6.50935 59.4503 6.50935H62.9663C63.3788 6.50935 63.7108 6.39177 63.9625 6.16005C64.2141 5.92833 64.3399 5.6136 64.3399 5.21934C64.3399 4.82507 64.2141 4.5138 63.9625 4.27862C63.7108 4.0469 63.3788 3.92931 62.9663 3.92931H59.4503Z" fill="#F80069"/>
<path d="M78.6874 3.9501H74.0913V11.6868H78.6874V14.4501H70.4774V1.19022H78.6874V3.95356V3.9501ZM84 15H80.3686V9.29002H78.0513V6.52668H80.3686V1H84V15Z" fill="#F80069"/>
<path d="M25.9984 10.6699H22.388V15H35.5191V12.2366H25.9984V10.6699Z" fill="#F80069"/>
<path d="M31.9087 1V4.12994H30.5945V1.1833H26.984V2.78458H25.6314V1.1833H22V9.74654H30.5945V6.89328H31.9087V10.67H35.5191V1H31.9087ZM25.953 8.80929V6.68923H24.4501L26.4458 3.66304V5.58943H28.0501L25.953 8.80929Z" fill="#F80069"/>
<path d="M38.0321 1.18677H43.6732V4.48272C43.6732 10.3898 41.9222 13.71 38.4201 14.4467L37.6476 11.6833C38.5354 11.3029 39.1925 10.5489 39.6189 9.41799C40.0453 8.28707 40.255 6.64428 40.255 4.48272V3.95011H38.0356V1.18677H38.0321Z" fill="#F80069"/>
<path d="M51.9357 1H48.6084V6.55089H47.7905V1H44.4632V6.52668V9.29002V14.955V15H47.7905V9.27273H48.6084V15H51.9357V1Z" fill="#F80069"/>
</svg>
