<svg width="14" height="14" viewBox="0 0 14 14" fill="none" xmlns="http://www.w3.org/2000/svg">
<path fill-rule="evenodd" clip-rule="evenodd" d="M1.88352 7.00002C1.88352 9.82554 4.17405 12.1161 6.99957 12.1161C9.82508 12.1161 12.1156 9.82554 12.1156 7.00002C12.1156 4.17451 9.82508 1.88397 6.99957 1.88397C4.17405 1.88397 1.88352 4.17451 1.88352 7.00002ZM6.99957 0.777802C3.56313 0.777802 0.777344 3.56359 0.777344 7.00002C0.777344 10.4365 3.56313 13.2222 6.99957 13.2222C10.436 13.2222 13.2218 10.4365 13.2218 7.00002C13.2218 3.56359 10.436 0.777802 6.99957 0.777802Z" fill="black"/>
<path fill-rule="evenodd" clip-rule="evenodd" d="M6.44648 2.85188H7.55265V6.44694H10.4564V7.55311H6.44648V2.85188Z" fill="black"/>
</svg>
