<svg width="18" height="18" viewBox="0 0 18 18" fill="none" xmlns="http://www.w3.org/2000/svg">
<path fill-rule="evenodd" clip-rule="evenodd" d="M8.49972 1.3999C4.30246 1.3999 0.899902 4.80246 0.899902 8.99972C0.899902 13.197 4.30246 16.5995 8.49972 16.5995C12.0614 16.5995 15.0505 14.1496 15.8744 10.8432L15.9094 10.7025L14.3125 10.3033L14.2774 10.4442C13.6319 13.0347 11.2898 14.9538 8.49972 14.9538C5.21137 14.9538 2.54563 12.2881 2.54563 8.99972C2.54563 5.71137 5.21137 3.04563 8.49972 3.04563C10.7314 3.04563 12.6766 4.2734 13.6962 6.09091L11.961 5.62597L11.535 7.21562L15.9416 8.39637L17.1224 3.98976L15.5327 3.56381L15.0907 5.2135C13.7788 2.93464 11.3186 1.3999 8.49972 1.3999Z" fill="#444444"/>
</svg>
