<svg width="20" height="20" viewBox="0 0 20 20" fill="none" xmlns="http://www.w3.org/2000/svg">
<path fill-rule="evenodd" clip-rule="evenodd" d="M9.99997 1.11108C5.09078 1.11108 1.11108 5.09078 1.11108 9.99997C1.11108 14.9092 5.09078 18.8889 9.99997 18.8889C14.9092 18.8889 18.8889 14.9092 18.8889 9.99997C18.8889 5.09078 14.9092 1.11108 9.99997 1.11108ZM3.72727 13.7531C4.69191 15.3619 6.25794 16.5688 8.11459 17.0631C7.60233 16.1968 7.09796 15.0733 6.74272 13.7531H3.72727ZM3.01975 12.1728H6.41115C6.30656 11.485 6.24689 10.7586 6.24689 9.99993C6.24689 9.23643 6.30727 8.51086 6.41286 7.82713H3.01975C2.80631 8.51355 2.69133 9.24333 2.69133 9.99997C2.69133 10.7566 2.80631 11.4864 3.01975 12.1728ZM3.72727 6.24689C4.70064 4.62355 6.28632 3.40936 8.16504 2.92359C7.64241 3.79112 7.11897 4.91236 6.75123 6.24689H3.72727ZM8.01441 7.82713C7.89634 8.5034 7.82713 9.22945 7.82713 9.99993C7.82713 10.7657 7.89544 11.4929 8.0119 12.1728H11.9881C12.1045 11.4929 12.1728 10.7657 12.1728 9.99993C12.1728 9.22945 12.1036 8.5034 11.9855 7.82713H8.01441ZM11.6014 6.24689H8.39852C8.84203 4.83507 9.46877 3.73387 9.99997 3.01656C10.5312 3.73387 11.1579 4.83507 11.6014 6.24689ZM13.5871 7.82713C13.6927 8.51086 13.7531 9.23643 13.7531 9.99993C13.7531 10.7586 13.6934 11.485 13.5888 12.1728H16.9802C17.1936 11.4864 17.3086 10.7566 17.3086 9.99997C17.3086 9.24333 17.1936 8.51355 16.9802 7.82713H13.5871ZM16.2727 6.24689H13.2487C12.881 4.91236 12.3575 3.79112 11.8349 2.92359C13.7136 3.40936 15.2993 4.62354 16.2727 6.24689ZM16.2727 13.7531H13.2572C12.902 15.0733 12.3976 16.1968 11.8854 17.0631C13.742 16.5688 15.308 15.3619 16.2727 13.7531ZM11.6133 13.7531H8.38661C8.83385 15.2179 9.47122 16.3562 9.99997 17.0425C10.5287 16.3562 11.1661 15.2179 11.6133 13.7531Z" fill="#888888"/>
</svg>
