<svg width="14" height="14" viewBox="0 0 14 14" fill="none" xmlns="http://www.w3.org/2000/svg">
<path fill-rule="evenodd" clip-rule="evenodd" d="M7 2.09457C4.94071 2.09457 3.17647 3.82326 3.17647 6.06998C3.17647 6.56629 3.40304 7.23057 3.80555 7.99293C4.2007 8.74136 4.73362 9.52613 5.27587 10.2462C5.8167 10.9643 6.35878 11.6075 6.76625 12.0716C6.85042 12.1675 6.92874 12.2556 7 12.3351C7.07126 12.2556 7.14958 12.1675 7.23375 12.0716C7.64122 11.6075 8.1833 10.9643 8.72413 10.2462C9.26638 9.52613 9.7993 8.74136 10.1945 7.99293C10.597 7.23057 10.8235 6.56629 10.8235 6.06998C10.8235 3.82326 9.05929 2.09457 7 2.09457ZM7 13.1771C6.5607 13.541 6.56055 13.5409 6.56055 13.5409L6.55948 13.5398L6.55667 13.5368L6.54636 13.526L6.5077 13.485C6.47418 13.4494 6.42551 13.3973 6.36385 13.3303C6.24057 13.1966 6.06519 13.0034 5.85507 12.764C5.43534 12.2859 4.87447 11.6206 4.31237 10.8743C3.75167 10.1297 3.18165 9.29384 2.7496 8.47552C2.3249 7.67114 2 6.82257 2 6.06998C2 3.32106 4.18619 1 7 1C9.81381 1 12 3.32106 12 6.06998C12 6.82257 11.6751 7.67114 11.2504 8.47552C10.8183 9.29384 10.2483 10.1297 9.68763 10.8743C9.12553 11.6206 8.56466 12.2859 8.14493 12.764C7.93481 13.0034 7.75943 13.1966 7.63615 13.3303C7.57449 13.3973 7.52582 13.4494 7.4923 13.485L7.45364 13.526L7.44333 13.5368L7.44052 13.5398L7.43971 13.5406C7.43971 13.5406 7.4393 13.541 7 13.1771ZM7 13.1771L7.43971 13.5406L7 14L6.56055 13.5409L7 13.1771Z" fill="#ECFFA0"/>
<path fill-rule="evenodd" clip-rule="evenodd" d="M5.97059 5.65191C5.97059 6.18086 6.43147 6.60966 7 6.60966C7.56853 6.60966 8.02941 6.18086 8.02941 5.65191C8.02941 5.12296 7.56853 4.69417 7 4.69417C6.43147 4.69417 5.97059 5.12296 5.97059 5.65191ZM7 3.5996C5.78172 3.5996 4.79412 4.51845 4.79412 5.65191C4.79412 6.78538 5.78172 7.70423 7 7.70423C8.21828 7.70423 9.20588 6.78538 9.20588 5.65191C9.20588 4.51845 8.21828 3.5996 7 3.5996Z" fill="#ECFFA0"/>
</svg>
