<svg width="24" height="30" viewBox="0 0 24 30" fill="none" xmlns="http://www.w3.org/2000/svg">
<g filter="url(#filter0_d_1393_9413)">
<path fill-rule="evenodd" clip-rule="evenodd" d="M11.9999 2.99997C14.2985 2.99997 16.5029 3.91505 18.1282 5.5439C19.7535 7.17275 20.6666 9.38194 20.6666 11.6855C20.6666 14.6965 18.1079 19.6348 12.9904 26.5005C12.9241 26.598 12.8401 26.6822 12.7428 26.7487C12.5021 26.9312 12.2032 27.0193 11.9022 26.9964C11.6013 26.9736 11.319 26.8413 11.1085 26.6246L11.0094 26.5005L10.638 26.0042L9.91992 25.024C5.52881 18.9193 3.33325 14.4731 3.33325 11.6855C3.33325 9.38194 4.24635 7.17275 5.87166 5.5439C7.49698 3.91505 9.70138 2.99997 11.9999 2.99997ZM11.9999 7.96312C11.2653 7.96312 10.5472 8.18143 9.93637 8.59045C9.32556 8.99947 8.84949 9.58082 8.56837 10.261C8.28724 10.9412 8.21369 11.6896 8.357 12.4117C8.50032 13.1337 8.85407 13.797 9.37352 14.3176C9.89297 14.8382 10.5548 15.1927 11.2753 15.3363C11.9958 15.48 12.7426 15.4062 13.4213 15.1245C14.1 14.8428 14.6801 14.3657 15.0882 13.7535C15.4964 13.1414 15.7142 12.4217 15.7142 11.6855C15.7142 10.6983 15.3229 9.75145 14.6263 9.05337C13.9298 8.3553 12.985 7.96312 11.9999 7.96312Z" fill="#D5FF2E" stroke="#222222"/>
</g>
<defs>
<filter id="filter0_d_1393_9413" x="0.833252" y="0.5" width="22.3333" height="29" filterUnits="userSpaceOnUse" color-interpolation-filters="sRGB">
<feFlood flood-opacity="0" result="BackgroundImageFix"/>
<feColorMatrix in="SourceAlpha" type="matrix" values="0 0 0 0 0 0 0 0 0 0 0 0 0 0 0 0 0 0 127 0" result="hardAlpha"/>
<feOffset/>
<feGaussianBlur stdDeviation="1"/>
<feComposite in2="hardAlpha" operator="out"/>
<feColorMatrix type="matrix" values="0 0 0 0 0 0 0 0 0 0 0 0 0 0 0 0 0 0 0.45 0"/>
<feBlend mode="normal" in2="BackgroundImageFix" result="effect1_dropShadow_1393_9413"/>
<feBlend mode="normal" in="SourceGraphic" in2="effect1_dropShadow_1393_9413" result="shape"/>
</filter>
</defs>
</svg>
