<svg width="18" height="18" viewBox="0 0 18 18" fill="none" xmlns="http://www.w3.org/2000/svg">
<mask id="path-1-inside-1_1393_13305" fill="white">
<path fill-rule="evenodd" clip-rule="evenodd" d="M9 1L5.57143 3.8L1 7.4V17H17V7.4L12.4286 3.8L9 1ZM7.4 17V13H10.6V17H7.4Z"/>
</mask>
<path d="M5.57143 3.8L6.49946 4.97845L6.50992 4.97022L6.52023 4.9618L5.57143 3.8ZM9 1L9.9488 -0.161798L9 -0.936653L8.0512 -0.161798L9 1ZM1 7.4L0.0719671 6.22155L-0.5 6.67197V7.4H1ZM1 17H-0.5V18.5H1V17ZM17 17V18.5H18.5V17H17ZM17 7.4H18.5V6.67197L17.928 6.22155L17 7.4ZM12.4286 3.8L11.4798 4.9618L11.4901 4.97022L11.5005 4.97845L12.4286 3.8ZM7.4 13V11.5H5.9V13H7.4ZM7.4 17H5.9V18.5H7.4V17ZM10.6 13H12.1V11.5H10.6V13ZM10.6 17V18.5H12.1V17H10.6ZM6.52023 4.9618L9.9488 2.1618L8.0512 -0.161798L4.62263 2.6382L6.52023 4.9618ZM1.92803 8.57845L6.49946 4.97845L4.6434 2.62155L0.0719671 6.22155L1.92803 8.57845ZM-0.5 7.4V17H2.5V7.4H-0.5ZM1 18.5H17V15.5H1V18.5ZM18.5 17V7.4H15.5V17H18.5ZM11.5005 4.97845L16.072 8.57845L17.928 6.22155L13.3566 2.62155L11.5005 4.97845ZM8.0512 2.1618L11.4798 4.9618L13.3774 2.6382L9.9488 -0.161798L8.0512 2.1618ZM5.9 13V17H8.9V13H5.9ZM10.6 11.5H7.4V14.5H10.6V11.5ZM12.1 17V13H9.1V17H12.1ZM7.4 18.5H10.6V15.5H7.4V18.5Z" fill="white" mask="url(#path-1-inside-1_1393_13305)"/>
</svg>
