<svg width="18" height="18" viewBox="0 0 18 18" fill="none" xmlns="http://www.w3.org/2000/svg">
<mask id="path-1-inside-1_5_954" fill="white">
<path fill-rule="evenodd" clip-rule="evenodd" d="M4.06783 12.2063L3.10653 12.5532C2.97333 12.6013 2.84776 12.6651 2.732 12.7424H15.1242C15.0081 12.6649 14.8822 12.6009 14.7485 12.5528L13.7862 12.2063V6.63389C13.7862 3.94106 11.6106 1.75809 8.927 1.75809C6.24335 1.75809 4.06783 3.94106 4.06783 6.63389V12.2063ZM17.0077 12.7424C17.2305 13.1799 17.3563 13.6755 17.3563 14.2005H0.5C0.5 13.6755 0.625712 13.1799 0.848581 12.7424C1.21594 12.0214 1.84728 11.4582 2.61471 11.1812V6.63389C2.61471 3.13577 5.44081 0.299988 8.927 0.299988C12.4132 0.299988 15.2393 3.13577 15.2393 6.63389V11.1804C16.0077 11.4571 16.6399 12.0206 17.0077 12.7424Z"/>
<path d="M5.30778 15.2698C5.88262 16.6948 7.27488 17.7 8.90111 17.7C10.5273 17.7 11.9196 16.6948 12.4944 15.2698H10.8388C10.3969 15.8601 9.69345 16.2419 8.90111 16.2419C8.10876 16.2419 7.40528 15.8601 6.96343 15.2698H5.30778Z"/>
</mask>
<path fill-rule="evenodd" clip-rule="evenodd" d="M4.06783 12.2063L3.10653 12.5532C2.97333 12.6013 2.84776 12.6651 2.732 12.7424H15.1242C15.0081 12.6649 14.8822 12.6009 14.7485 12.5528L13.7862 12.2063V6.63389C13.7862 3.94106 11.6106 1.75809 8.927 1.75809C6.24335 1.75809 4.06783 3.94106 4.06783 6.63389V12.2063ZM17.0077 12.7424C17.2305 13.1799 17.3563 13.6755 17.3563 14.2005H0.5C0.5 13.6755 0.625712 13.1799 0.848581 12.7424C1.21594 12.0214 1.84728 11.4582 2.61471 11.1812V6.63389C2.61471 3.13577 5.44081 0.299988 8.927 0.299988C12.4132 0.299988 15.2393 3.13577 15.2393 6.63389V11.1804C16.0077 11.4571 16.6399 12.0206 17.0077 12.7424Z" fill="black"/>
<path d="M5.30778 15.2698C5.88262 16.6948 7.27488 17.7 8.90111 17.7C10.5273 17.7 11.9196 16.6948 12.4944 15.2698H10.8388C10.3969 15.8601 9.69345 16.2419 8.90111 16.2419C8.10876 16.2419 7.40528 15.8601 6.96343 15.2698H5.30778Z" fill="black"/>
<path d="M3.10653 12.5532L3.61576 13.9641L3.61576 13.9641L3.10653 12.5532ZM4.06783 12.2063L4.57706 13.6172L5.56783 13.2596V12.2063H4.06783ZM2.732 12.7424L1.89887 11.4951L-2.21437 14.2424H2.732V12.7424ZM15.1242 12.7424V14.2424H20.0706L15.9574 11.4951L15.1242 12.7424ZM14.7485 12.5528L15.2567 11.1415L15.2567 11.1415L14.7485 12.5528ZM13.7862 12.2063H12.2862V13.2605L13.278 13.6176L13.7862 12.2063ZM17.3563 14.2005V15.7005H18.8563V14.2005H17.3563ZM17.0077 12.7424L18.3442 12.0615H18.3442L17.0077 12.7424ZM0.5 14.2005H-1V15.7005H0.5V14.2005ZM0.848581 12.7424L-0.487969 12.0615L-0.487969 12.0615L0.848581 12.7424ZM2.61471 11.1812L3.12393 12.5921L4.11471 12.2345V11.1812H2.61471ZM15.2393 11.1804H13.7393V12.2345L14.7311 12.5917L15.2393 11.1804ZM5.30778 15.2698V13.7698H3.08521L3.9167 15.831L5.30778 15.2698ZM12.4944 15.2698L13.8855 15.831L14.717 13.7698H12.4944V15.2698ZM10.8388 15.2698V13.7698H10.0879L9.63796 14.3709L10.8388 15.2698ZM6.96343 15.2698L8.16425 14.3709L7.71429 13.7698H6.96343V15.2698ZM3.61576 13.9641L4.57706 13.6172L3.5586 10.7954L2.5973 11.1423L3.61576 13.9641ZM3.56514 13.9898C3.58135 13.979 3.59832 13.9704 3.61576 13.9641L2.59731 11.1423C2.34833 11.2322 2.11417 11.3513 1.89887 11.4951L3.56514 13.9898ZM15.1242 11.2424H2.732V14.2424H15.1242V11.2424ZM14.2403 13.9641C14.2578 13.9704 14.2749 13.9789 14.2911 13.9898L15.9574 11.4951C15.7414 11.3508 15.5065 11.2314 15.2567 11.1415L14.2403 13.9641ZM13.278 13.6176L14.2403 13.9641L15.2567 11.1415L14.2943 10.795L13.278 13.6176ZM8.927 3.25809C10.7774 3.25809 12.2862 4.76465 12.2862 6.63389H15.2862C15.2862 3.11747 12.4439 0.258088 8.927 0.258088V3.25809ZM5.56783 6.63389C5.56783 4.76465 7.07661 3.25809 8.927 3.25809V0.258088C5.4101 0.258088 2.56783 3.11747 2.56783 6.63389H5.56783ZM18.8563 14.2005C18.8563 13.4336 18.6721 12.7052 18.3442 12.0615L15.6711 13.4234C15.789 13.6547 15.8563 13.9174 15.8563 14.2005H18.8563ZM-0.487969 12.0615C-0.815865 12.7052 -1 13.4336 -1 14.2005H2C2 13.9174 2.06729 13.6547 2.18513 13.4234L-0.487969 12.0615ZM2.10548 9.77026C0.975294 10.1782 0.0503428 11.0049 -0.487969 12.0615L2.18513 13.4234C2.38154 13.0378 2.71926 12.7381 3.12393 12.5921L2.10548 9.77026ZM1.11471 6.63389V11.1812H4.11471V6.63389H1.11471ZM8.927 -1.20001C4.60756 -1.20001 1.11471 2.31219 1.11471 6.63389H4.11471C4.11471 3.95936 6.27407 1.79999 8.927 1.79999V-1.20001ZM16.7393 6.63389C16.7393 2.31218 13.2464 -1.20001 8.927 -1.20001V1.79999C11.5799 1.79999 13.7393 3.95936 13.7393 6.63389H16.7393ZM16.7393 11.1804V6.63389H13.7393V11.1804H16.7393ZM18.3442 12.0615C17.8054 11.0039 16.8791 10.1765 15.7475 9.76906L14.7311 12.5917C15.1363 12.7376 15.4745 13.0374 15.6711 13.4234L18.3442 12.0615ZM12.2862 6.63389V12.2063H15.2862V6.63389H12.2862ZM5.56783 12.2063V6.63389H2.56783V12.2063H5.56783ZM0.5 15.7005H17.3563V12.7005H0.5V15.7005ZM3.9167 15.831C4.71162 17.8015 6.63996 19.2 8.90111 19.2V16.2C7.90979 16.2 7.05362 15.5881 6.69885 14.7086L3.9167 15.831ZM8.90111 19.2C11.1622 19.2 13.0906 17.8015 13.8855 15.831L11.1034 14.7086C10.7486 15.5881 9.89242 16.2 8.90111 16.2V19.2ZM12.4944 13.7698H10.8388V16.7698H12.4944V13.7698ZM8.90111 17.7419C10.1873 17.7419 11.3275 17.12 12.0396 16.1687L9.63796 14.3709C9.46638 14.6001 9.19963 14.7419 8.90111 14.7419V17.7419ZM5.7626 16.1687C6.47472 17.12 7.61493 17.7419 8.90111 17.7419V14.7419C8.60259 14.7419 8.33584 14.6001 8.16425 14.3709L5.7626 16.1687ZM6.96343 13.7698H5.30778V16.7698H6.96343V13.7698Z" fill="black" mask="url(#path-1-inside-1_5_954)"/>
</svg>
