<svg width="14" height="14" viewBox="0 0 14 14" fill="none" xmlns="http://www.w3.org/2000/svg">
<path fill-rule="evenodd" clip-rule="evenodd" d="M12.1161 1.88395H1.884V12.116H12.1161V1.88395ZM0.777832 0.777779V13.2222H13.2223V0.777779H0.777832Z" fill="#444444"/>
<path fill-rule="evenodd" clip-rule="evenodd" d="M9.62722 4.02715C9.28357 4.02715 9.00499 4.30573 9.00499 4.64938C9.00499 4.99302 9.28357 5.2716 9.62722 5.2716C9.97086 5.2716 10.2494 4.99302 10.2494 4.64938C10.2494 4.30573 9.97086 4.02715 9.62722 4.02715ZM8.03709 4.64938C8.03709 3.77117 8.74901 3.05925 9.62722 3.05925C10.5054 3.05925 11.2173 3.77117 11.2173 4.64938C11.2173 5.52758 10.5054 6.2395 9.62722 6.2395C8.74901 6.2395 8.03709 5.52758 8.03709 4.64938Z" fill="#444444"/>
<path fill-rule="evenodd" clip-rule="evenodd" d="M5.44671 5.89236C5.36657 5.76643 5.18172 5.76948 5.10579 5.89799L0.777832 13.2222H13.2223L9.54315 8.20524C9.47589 8.11351 9.34576 8.09628 9.25693 8.16734L7.69141 9.41975L5.44671 5.89236ZM9.21 9.62148L7.59396 10.9143C7.50104 10.9886 7.36417 10.9659 7.30028 10.8655L5.30659 7.73256L2.71634 12.116H11.0393L9.21 9.62148Z" fill="#444444"/>
</svg>
